/* XPM */
static char *result[] = {
/* columns rows colors chars-per-pixel */
"10 10 19 1 ",
"  c #95100E",
". c #971210",
"X c #BF0F0C",
"o c #A9100E",
"O c #AA110F",
"+ c #A91110",
"@ c #C50E0D",
"# c #DF0F0E",
"$ c #C1100D",
"% c #E00F0F",
"& c #EB0A09",
"* c #E90A0A",
"= c #EC0A09",
"- c #EA0C0B",
"; c red",
": c #FC0403",
"> c #FA0504",
", c #FD0404",
"< c None",
/* pixels */
"<<<+%#o<<<",
"<<,;;;;:<<",
"<>;;;;;;><",
".;;;;;;;; ",
"@;;;;;;;;@",
"$;;;;;;;;X",
"<;;;;;;;;<",
"<&;;;;;;=<",
"<<-;;;;*<<",
"<<<<OO<<<<"
};
