/* XPM */
static char *result[] = {
/* columns rows colors chars-per-pixel */
"64 64 82 1 ",
"  c black",
". c gray6",
"X c #151515",
"o c gray12",
"O c #231512",
"+ c #2A2024",
"@ c #382E2B",
"# c #2A2E31",
"$ c #34393C",
"% c #3E484D",
"& c #495960",
"* c #ACACAC",
"= c gray68",
"- c #AFAFAF",
"; c gray69",
": c #B1B1B1",
"> c #B2B2B2",
", c #B4B4B4",
"< c gray71",
"1 c #B6B6B6",
"2 c gray72",
"3 c #B9B9B9",
"4 c gray73",
"5 c #BBBBBB",
"6 c gray74",
"7 c gray",
"8 c gray75",
"9 c #C0C0C0",
"0 c gray76",
"q c #C3C3C3",
"w c gray77",
"e c #C6C6C6",
"r c gray78",
"t c #C8C8C8",
"y c #CACACA",
"u c #CBCBCB",
"i c gray80",
"p c #CDCDCD",
"a c gray81",
"s c #D0D0D0",
"d c gray82",
"f c LightGray",
"g c gray83",
"h c #D5D5D5",
"j c gray84",
"k c #D8D8D8",
"l c gray85",
"z c #DADADA",
"x c gainsboro",
"c c #DDDDDD",
"v c gray87",
"b c #DFDFDF",
"n c #E1E1E1",
"m c #E2E2E2",
"M c gray89",
"N c #E4E4E4",
"B c #E6E6E6",
"V c #E7E7E7",
"C c gray91",
"Z c #E9E9E9",
"A c #EAEAEA",
"S c gray92",
"D c #ECECEC",
"F c gray93",
"G c #EEEEEE",
"H c #EFEFEF",
"J c gray94",
"K c #F1F1F1",
"L c gray95",
"P c #F3F3F3",
"I c #F4F4F4",
"U c gray96",
"Y c #F6F6F6",
"T c gray97",
"R c #F8F8F8",
"E c #F9F9F9",
"W c gray98",
"Q c #FBFBFB",
"! c gray99",
"~ c #FDFDFD",
"^ c #FEFEFE",
"/ c white",
/* pixels */
"                                                                ",
"$$$$$$$$$$$$$#$#$$$$$$$$$$#$#$#$$$$$$$$$$$$$$$$$$$$$$$$$$$$#$#$$",
"################################################################",
"################################################################",
"################################################################",
"################################################################",
"########+############CASDFHJKLIUYREWQ###########################",
"#######+.+##########VVCASDFHJKLIUYREWQ^/########################",
"$$$$$$$@@@$$$$$$$$$VBVVSDFHJKLIUYREWQ~~^/$$$$$$$$$$$$$$$$$$$$$$$",
"#######+++#########BNB###############~^/########################",
"$$$$$$$@@$$$$$$$$$$NMN$$$$$$$$$$$$$$$$$$$$$$$$$$$$$$$$$$$$$$$$$$",
"$$$$$$$@@@$$$@$$$$$MmM$$$$$$$$$$$$$$$$$$$$$$$$$$$$$$$$$$$$$$$$$$",
"$$$$$$$@@$$$@+@$$$$mnm$$$$$$$$$$$$$$$$$$$$$$$$$$$$$$$$$$$$$$$$$$",
"$$$$$$$@@$$$@@@$$$$nbn$$$$$$$$$$$$$$$$$$$$$$$$$$$$$$$$$$$$$$$$$$",
"$$$$$$$$@$$$$@@$$$$bvb$$$$$$$$$$$$$$$$$$$$$$$$$$$$$$$$$$$$$$$$$$",
"$$$$$$$@@$$$$@$$$$$vcv$$$$$$$$$$$$$$$$$$$$$$$$$$$$$$$$$$$$$$$$$$",
"$$$$$$$$@$$$$$@$$$$cxc$$$$$$$$$$$$$$$$$$$$$$$$$$$$$$$$$$$$$$$$$$",
"$$$$$$$$@$$$$@$$$$$xzx$$$$$$$$$$$$$$$$$$$$$$$$$$$$$$$$$$$$$$$$$$",
"$$$$$$$$$$$$$$$$$$$zlz$$$$$$$$$$$$$$$$$$$$$$$$$$$$$$$$$$$$$$$$$$",
"$$$$$$$$@$$$$$$$$$$lkl$$$$$$$$$$$$$$$$$$$$$$$$$$$$$$$$$$$$$$#%$$",
"$$$$$$$$$$$$$$$$$$$kj/~!QERTUIPLJHGFSAZV$$$$$$$$$$$$$$$$$$$#&$$$",
"$$$$$$$$$$$$$$$$$$$j/~!QERTUIPLJHGFSAZVVV$$$$$$$$$$$$$$$$$$%$$$$",
"$$$$$$$$$$$$$$$$$$$$h/~!QERTUIPLJHGFSAZV$$$$$$$$$$$$$$$$$#$$$$$$",
"$$$$$$$$$$$$$$$$$$$$gfg$$$$$$$$$$$$$$$$$$$$$$$$$$$$$$$#$#$$$$$$$",
"$$$$$$$$$$$$$$$$$$$$fdf$$$$$$$$$$$$$$$$$$$$$$$$$$$$$$#%#$#%$$$$$",
"$$$$$$$$$$$$$$$$$$$$dsd$$$$$$$$$$$$$$$$$$$$$$$$$$$$$#&#$#&$$$$$$",
"$$$$$$$$$$$$$$$$$$$$sas$$$$$$$$$$$$$$$$$$$$$$$$$$$$#&$$#%$$$$$$$",
"$$$#$$$$$$$$$$$$$$$$apa$$$$$$$$$$$$$$$$$$$$$$$$$$$$%$$#$$$$$$$$$",
"$$$$#$$$$$$$$$$$$$$$pip$$$$$$$$$$$$$$$$$$$$$$$$$$$$$$$$$$$$$$$$$",
"$$$##$$$$$$$$$$$$$$$iuu$$$$$$$$$$$$$$$$$$$$$$$$$$$$$$$$$$$$$$$$$",
"$$###$$$$$$$$$$$$$$$uuyu$$$$$$$$$$$$$$$$$$$$$$$$$$$$$$$$$$$$$$$$",
"$$##$$$$$$$$$$$$$$$$$yty$$$$$$$$$$$$$$$$$$$$$$$$$$$$$$$$$$$$$$$$",
"$$###$$$$$$$$$$$$$$$$trt$$$$$$$$$$$$$$$$$$$$$$$$$$$$$$$$$$$$$$$$",
"$$$#$$$$$$$$$$$$$$$$$rer$$$$$$$$$$$$$$$$$$$$$$$$$$$$$$$$$$$$$$$$",
"$$$$#$$$$$$$$$$$$$$$$wq0987654321<,>:;$$$$$$$$$$$$$$$$$$$$$$$$$$",
"$$$$$$$$$$$$$$$$$$$$wq0987654321<,>:;;-=*$$$$$$$$$$$$$$$$$$$$$$$",
"$$$$$$$$$$$$$$$$$$$$$wq0987654321<,>;-=***$$$$$$$$$$$$$$$$$$$$$$",
"&&&&&&&&&&&&&&&&&&&&&&&&&&&&$&$&&&&$&;-=*&&$&$&$&&&$&$&$&$&&&&&&",
"                                                                ",
"                                                                ",
"X. .X...X. .X...X. .X...X. .X...X. .X...X. .X...X. .X...X. .X...",
"o. ooX.oo. ooX.oo. ooX.oo. ooX.oo. ooX.oo. ooX.oo. ooX.oo. ooX.o",
"o. ooXXoo. ooXXoo. ooXXoo. ooXXoo. ooXXoo. ooXXoo. ooXXoo. ooXXo",
"o. ooXXoo. ooXXoo. ooXXoo. ooXXoo. ooXXoo. ooXXoo. ooXXoo. ooXXo",
"oX.ooXXooX.ooXXooX.ooXXooX.ooXXooX.ooXXooX.ooXXooX.ooXXooX.ooXXo",
"o. ooXXoo. ooXXoo. ooXXoo. ooXXoo. ooXXoo. ooXXoo. ooXXoo. ooXXo",
"oX.ooXXooX.ooXXooX.ooXXooX.ooXXooX.ooXXooX.ooXXooX.ooXXooX.ooXXo",
"oX ooXXooX ooXXooX ooXXooX ooXXooX ooXXooX ooXXooX ooXXooX ooXXo",
"oX.ooXXooX.ooXXooX.ooXXooX.ooXXooX.ooXXooX.ooXXooX.ooXXooX.ooXXo",
"oX.ooXXooX.ooXXooX.ooXXooX.ooXXooX.ooXXooX.ooXXooX.ooXXooX.ooXXo",
"o..ooXXoo..oXXXoo..ooXXoo..oXXXoo..ooXXoo..oXXXoo..ooXXoo..oXXXo",
"oX.ooXXooX.ooXXooX.ooXXooX.ooXXooX.ooXXooX.ooXXooX.ooXXooX.ooXXo",
"X. oXXXoX. oXXXoX. oXXXoX. oXXXoX. oXXXoX. oXXXoX. oXXXoX. oXXXo",
"o..XoXXoo..XoXXoo..XoXXoo..XoXXoo..XoXXoo..XoXXoo..XoXXoo..XoXXo",
"X. oXX.oX. oXX.oX. oXX.oX. oXX.oX. oXX.oX. oXX.oX. oXX.oX. oXX.o",
"X  XX. XX  XX. XX  XX. XX  XX. XX  XX. XX  XX. XX  XX. XX  XX. X",
"&&&&&&&&&%&&&&%&%&%&%&%%%%%%&%&%&%&&&&&&&&&&&&&&&&&&&&&&&%&&&&%&",
"$$$$$$$$#$$$$$$$$$$$$$$$$#$$$$$$$$$$$$$#$#$$$$$$#$#$$$$$#$$$$$$$",
"$#$$$$$#$$$$$$$$$$$$$$$##$$$$$$$$$$$$$$$#$$$$$$$$#$$$$$#$$$$$$$$",
"#$$&#$$$$$$&#$$$$$$&#$$#$$$&#$$$$$$&#$$#$$$&#$$$#$$&#$$$$$$&#$$$",
"$$+##$$$$$+##$$$$$+##$#$#$+##$$$$$+##$$$$$+##$$#$$+##$$$$$+##$$#",
"#$++$$$$$$++$$$$$$++$$$#$$++$$$$$$++$$$$$$++$$##$$++$$$$$$++$$#$",
"$$$$$$$$$$$$$$$$$$$$$$#$$$$$$$$$$$$$#$$$$$$$$$#$$$$$$$$$$$$$$#$#",
"+OOOOOO+O+O+++++++O+O+.+.+....+.++++++++O+O++O+O+OOOOOO+O+O+++++"
};
