/* XPM */
static char *result[] = {
/* columns rows colors chars-per-pixel */
"50 50 4 1 ",
"  c #0A8100",
". c #0CC000",
"X c #10FF00",
"o c None",
/* pixels */
"oooooooooooooooooooooo XXXX oooooooooooooooooooooo",
"oooooooooooooooooooooo XXXX oooooooooooooooooooooo",
"oooooooooooooooooooooo XXXX oooooooooooooooooooooo",
"oooooooooooooooooooooo XXXX oooooooooooooooooooooo",
"oooooooooooooooooooooo XXXX oooooooooooooooooooooo",
"oooooooooooooooooooooo XXXX oooooooooooooooooooooo",
"oooooooooooooooooooooo XXXX oooooooooooooooooooooo",
"oooooooooooooooooooooo XXXX oooooooooooooooooooooo",
"oooooooooooooooooooooo XXXX oooooooooooooooooooooo",
"ooooooooooooooooooooooo....ooooooooooooooooooooooo",
"oooooooooooooooooooooooooooooooooooooooooooooooooo",
"oooooooooooooooooooooooooooooooooooooooooooooooooo",
"oooooooooooooooooooooooooooooooooooooooooooooooooo",
"oooooooooooooooooooooooooooooooooooooooooooooooooo",
"oooooooooooooooooooooooooooooooooooooooooooooooooo",
"oooooooooooooooooooooooooooooooooooooooooooooooooo",
"oooooooooooooooooooooooooooooooooooooooooooooooooo",
"oooooooooooooooooooooooooooooooooooooooooooooooooo",
"oooooooooooooooooooooooooooooooooooooooooooooooooo",
"oooooooooooooooooooooooooooooooooooooooooooooooooo",
"oooooooooooooooooooooooooooooooooooooooooooooooooo",
"oooooooooooooooooooooooooooooooooooooooooooooooooo",
"         oooooooooooooooooooooooooooooooo         ",
"XXXXXXXXX.oooooooooooooooooooooooooooooo.XXXXXXXXX",
"XXXXXXXXX.oooooooooooooooooooooooooooooo.XXXXXXXXX",
"XXXXXXXXX.oooooooooooooooooooooooooooooo.XXXXXXXXX",
"XXXXXXXXX.oooooooooooooooooooooooooooooo.XXXXXXXXX",
"         oooooooooooooooooooooooooooooooo         ",
"oooooooooooooooooooooooooooooooooooooooooooooooooo",
"oooooooooooooooooooooooooooooooooooooooooooooooooo",
"oooooooooooooooooooooooooooooooooooooooooooooooooo",
"oooooooooooooooooooooooooooooooooooooooooooooooooo",
"oooooooooooooooooooooooooooooooooooooooooooooooooo",
"oooooooooooooooooooooooooooooooooooooooooooooooooo",
"oooooooooooooooooooooooooooooooooooooooooooooooooo",
"oooooooooooooooooooooooooooooooooooooooooooooooooo",
"oooooooooooooooooooooooooooooooooooooooooooooooooo",
"oooooooooooooooooooooooooooooooooooooooooooooooooo",
"oooooooooooooooooooooooooooooooooooooooooooooooooo",
"oooooooooooooooooooooooooooooooooooooooooooooooooo",
"ooooooooooooooooooooooo....ooooooooooooooooooooooo",
"oooooooooooooooooooooo XXXX oooooooooooooooooooooo",
"oooooooooooooooooooooo XXXX oooooooooooooooooooooo",
"oooooooooooooooooooooo XXXX oooooooooooooooooooooo",
"oooooooooooooooooooooo XXXX oooooooooooooooooooooo",
"oooooooooooooooooooooo XXXX oooooooooooooooooooooo",
"oooooooooooooooooooooo XXXX oooooooooooooooooooooo",
"oooooooooooooooooooooo XXXX oooooooooooooooooooooo",
"oooooooooooooooooooooo XXXX oooooooooooooooooooooo",
"oooooooooooooooooooooo XXXX oooooooooooooooooooooo"
};
