/* XPM */
static char *result[] = {
/* columns rows colors chars-per-pixel */
"40 40 13 1 ",
"  c #A7A7A7",
". c gray70",
"X c #BCBCBC",
"o c gray74",
"O c gray75",
"+ c #C0C0C0",
"@ c gray76",
"# c #C3C3C3",
"$ c gray77",
"% c #C5C5C5",
"& c #C6C6C6",
"* c gray78",
"= c LightGray",
/* pixels */
" o+@%%&**********&%%%%%#@@@@@@++++++Ooo.",
"@======================================*",
"@======================================*",
"$======================================*",
"%======================================*",
"%======================================*",
"%======================================*",
"%======================================*",
"%======================================*",
"*======================================*",
"*======================================*",
"*======================================*",
"*======================================*",
"*======================================*",
"*======================================*",
"*======================================*",
"%======================================*",
"%======================================*",
"%======================================*",
"%======================================*",
"%======================================*",
"%======================================*",
"%======================================*",
"#======================================*",
"@======================================*",
"@======================================*",
"@======================================*",
"@======================================*",
"@======================================*",
"@======================================*",
"+======================================*",
"+======================================*",
"+======================================*",
"+======================================*",
"+======================================*",
"+======================================*",
"O======================================*",
"o======================================*",
"o======================================*",
".**************************************X"
};
