/* XPM */
static char *result[] = {
/* columns rows colors chars-per-pixel */
"30 30 8 1 ",
"  c black",
". c #161616",
"X c gray9",
"o c #181818",
"O c #191919",
"+ c gray16",
"@ c #2C2C2C",
"# c #323232",
/* pixels */
"#OX...............XXXXXoooooO@",
"X                            .",
".                            .",
".                            .",
".                            .",
".                            .",
".                            .",
".                            .",
".                            .",
".                            .",
".                            .",
".                            .",
".                            .",
".                            .",
".                            .",
".                            .",
".                            .",
".                            .",
"X                            .",
"X                            .",
"X                            .",
"X                            .",
"X                            .",
"o                            .",
"o                            .",
"o                            .",
"o                            .",
"o                            .",
"O                            .",
"@............................+"
};
