/* XPM */
static char *result[] = {
/* columns rows colors chars-per-pixel */
"40 40 9 1 ",
"  c black",
". c #1D1D1D",
"X c #1E1E1E",
"o c gray12",
"O c #202020",
"+ c #222222",
"@ c #353535",
"# c #3A3A3A",
"$ c gray26",
/* pixels */
"$+Oo....................XXXXXoOOOOOOO++#",
"X                                      .",
"X                                      .",
".                                      .",
".                                      .",
".                                      .",
".                                      .",
".                                      .",
".                                      .",
".                                      .",
".                                      .",
".                                      .",
".                                      .",
".                                      .",
".                                      .",
".                                      .",
".                                      .",
".                                      .",
".                                      .",
".                                      .",
".                                      .",
".                                      .",
".                                      .",
".                                      .",
"X                                      .",
"X                                      .",
"X                                      .",
"X                                      .",
"X                                      .",
"o                                      .",
"O                                      .",
"O                                      .",
"O                                      .",
"O                                      .",
"O                                      .",
"O                                      .",
"O                                      .",
"+                                      .",
"+                                      .",
"#......................................@"
};
