/* XPM */
static char *result[] = {
/* columns rows colors chars-per-pixel */
"50 50 12 1 ",
"  c black",
". c gray14",
"X c #252525",
"o c gray15",
"O c #272727",
"+ c #282828",
"@ c gray16",
"# c #2A2A2A",
"$ c #2C2C2C",
"% c #414141",
"& c gray28",
"* c #535353",
/* pixels */
"*$@OoX.......................XoooooooO++++++++###&",
"o                                                .",
"o                                                .",
"o                                                .",
".                                                .",
".                                                .",
".                                                .",
".                                                .",
".                                                .",
".                                                .",
".                                                .",
".                                                .",
".                                                .",
".                                                .",
".                                                .",
".                                                .",
".                                                .",
".                                                .",
".                                                .",
".                                                .",
".                                                .",
".                                                .",
".                                                .",
".                                                .",
".                                                .",
".                                                .",
".                                                .",
".                                                .",
".                                                .",
"X                                                .",
"o                                                .",
"o                                                .",
"o                                                .",
"o                                                .",
"o                                                .",
"o                                                .",
"o                                                .",
"O                                                .",
"+                                                .",
"+                                                .",
"+                                                .",
"+                                                .",
"+                                                .",
"+                                                .",
"+                                                .",
"+                                                .",
"#                                                .",
"#                                                .",
"#                                                .",
"&................................................%"
};
