/* XPM */
static char *result[] = {
/* columns rows colors chars-per-pixel */
"20 20 9 1 ",
"  c gray",
". c #C3C3C3",
"X c gray78",
"o c gray79",
"O c #CACACA",
"+ c #CBCBCB",
"@ c gray80",
"# c #CDCDCD",
"$ c LightGray",
/* pixels */
" O@######@@+++Ooooo.",
"+$$$$$$$$$$$$$$$$$$#",
"@$$$$$$$$$$$$$$$$$$#",
"@$$$$$$$$$$$$$$$$$$#",
"@$$$$$$$$$$$$$$$$$$#",
"#$$$$$$$$$$$$$$$$$$#",
"#$$$$$$$$$$$$$$$$$$#",
"#$$$$$$$$$$$$$$$$$$#",
"@$$$$$$$$$$$$$$$$$$#",
"@$$$$$$$$$$$$$$$$$$#",
"@$$$$$$$$$$$$$$$$$$#",
"+$$$$$$$$$$$$$$$$$$#",
"+$$$$$$$$$$$$$$$$$$#",
"+$$$$$$$$$$$$$$$$$$#",
"+$$$$$$$$$$$$$$$$$$#",
"O$$$$$$$$$$$$$$$$$$#",
"o$$$$$$$$$$$$$$$$$$#",
"o$$$$$$$$$$$$$$$$$$#",
"o$$$$$$$$$$$$$$$$$$#",
".##################X"
};
