/* XPM */
static char *result[] = {
/* columns rows colors chars-per-pixel */
"30 30 12 1 ",
"  c #B2B2B2",
". c #BBBBBB",
"X c gray76",
"o c #C3C3C3",
"O c gray77",
"+ c #C5C5C5",
"@ c #C6C6C6",
"# c gray78",
"$ c #C8C8C8",
"% c gray79",
"& c #CACACA",
"* c LightGray",
/* pixels */
" O@$$&&&&&&&&$$$$#@@@@+++++Oo.",
"@****************************&",
"#****************************&",
"$****************************&",
"$****************************&",
"$****************************&",
"%****************************&",
"&****************************&",
"&****************************&",
"&****************************&",
"&****************************&",
"&****************************&",
"%****************************&",
"$****************************&",
"$****************************&",
"$****************************&",
"$****************************&",
"#****************************&",
"@****************************&",
"@****************************&",
"@****************************&",
"@****************************&",
"@****************************&",
"+****************************&",
"+****************************&",
"+****************************&",
"+****************************&",
"O****************************&",
"o****************************&",
".&&&&&&&&&&&&&&&&&&&&&&&&&&&&X"
};
