/* XPM */
static char *result[] = {
/* columns rows colors chars-per-pixel */
"50 50 16 1 ",
"  c #9A9A9A",
". c gray67",
"X c #B6B6B6",
"o c #B7B7B7",
"O c gray72",
"+ c gray73",
"@ c #BBBBBB",
"# c #BCBCBC",
"$ c gray74",
"% c gray",
"& c gray75",
"* c #C1C1C1",
"= c gray76",
"- c #C3C3C3",
"; c gray77",
": c LightGray",
/* pixels */
" X+$%***-;;;;;;;;;;;;-*******&%%%%%%%#@@@@@@@+OOO.",
"%::::::::::::::::::::::::::::::::::::::::::::::::;",
"%::::::::::::::::::::::::::::::::::::::::::::::::;",
"%::::::::::::::::::::::::::::::::::::::::::::::::;",
"*::::::::::::::::::::::::::::::::::::::::::::::::;",
"*::::::::::::::::::::::::::::::::::::::::::::::::;",
"*::::::::::::::::::::::::::::::::::::::::::::::::;",
"*::::::::::::::::::::::::::::::::::::::::::::::::;",
"*::::::::::::::::::::::::::::::::::::::::::::::::;",
"*::::::::::::::::::::::::::::::::::::::::::::::::;",
"*::::::::::::::::::::::::::::::::::::::::::::::::;",
"-::::::::::::::::::::::::::::::::::::::::::::::::;",
";::::::::::::::::::::::::::::::::::::::::::::::::;",
";::::::::::::::::::::::::::::::::::::::::::::::::;",
";::::::::::::::::::::::::::::::::::::::::::::::::;",
";::::::::::::::::::::::::::::::::::::::::::::::::;",
";::::::::::::::::::::::::::::::::::::::::::::::::;",
";::::::::::::::::::::::::::::::::::::::::::::::::;",
";::::::::::::::::::::::::::::::::::::::::::::::::;",
";::::::::::::::::::::::::::::::::::::::::::::::::;",
"=::::::::::::::::::::::::::::::::::::::::::::::::;",
"*::::::::::::::::::::::::::::::::::::::::::::::::;",
"*::::::::::::::::::::::::::::::::::::::::::::::::;",
"*::::::::::::::::::::::::::::::::::::::::::::::::;",
"*::::::::::::::::::::::::::::::::::::::::::::::::;",
"*::::::::::::::::::::::::::::::::::::::::::::::::;",
"*::::::::::::::::::::::::::::::::::::::::::::::::;",
"*::::::::::::::::::::::::::::::::::::::::::::::::;",
"*::::::::::::::::::::::::::::::::::::::::::::::::;",
"&::::::::::::::::::::::::::::::::::::::::::::::::;",
"%::::::::::::::::::::::::::::::::::::::::::::::::;",
"%::::::::::::::::::::::::::::::::::::::::::::::::;",
"%::::::::::::::::::::::::::::::::::::::::::::::::;",
"%::::::::::::::::::::::::::::::::::::::::::::::::;",
"%::::::::::::::::::::::::::::::::::::::::::::::::;",
"%::::::::::::::::::::::::::::::::::::::::::::::::;",
"%::::::::::::::::::::::::::::::::::::::::::::::::;",
"$::::::::::::::::::::::::::::::::::::::::::::::::;",
"@::::::::::::::::::::::::::::::::::::::::::::::::;",
"@::::::::::::::::::::::::::::::::::::::::::::::::;",
"@::::::::::::::::::::::::::::::::::::::::::::::::;",
"@::::::::::::::::::::::::::::::::::::::::::::::::;",
"@::::::::::::::::::::::::::::::::::::::::::::::::;",
"@::::::::::::::::::::::::::::::::::::::::::::::::;",
"@::::::::::::::::::::::::::::::::::::::::::::::::;",
"+::::::::::::::::::::::::::::::::::::::::::::::::;",
"O::::::::::::::::::::::::::::::::::::::::::::::::;",
"O::::::::::::::::::::::::::::::::::::::::::::::::;",
"O::::::::::::::::::::::::::::::::::::::::::::::::;",
".;;;;;;;;;;;;;;;;;;;;;;;;;;;;;;;;;;;;;;;;;;;;;;;;o"
};
