/* XPM */
static char *result[] = {
/* columns rows colors chars-per-pixel */
"64 64 17 1 ",
"  c black",
". c gray6",
"X c #1C110F",
"o c #151515",
"O c #1E1918",
"+ c gray12",
"@ c #231512",
"# c #2A2024",
"$ c #382E2B",
"% c #2A2E31",
"& c #34393C",
"* c #44130D",
"= c #64500B",
"- c #3E484D",
"; c #495960",
": c #981B0A",
"> c #B78E02",
/* pixels */
"                                                                ",
"&&&&&&&&&&&&&%&%&%&%%%. &&&&&&%&%&%&%%%%  %%&%&%&&&&&&&&&&&%&%&&",
"%%%%%%%%%%%%%%%%%%%%%%. &%%%%%%%%%%%%%%%  %%%%%%%%%%%%%%%%%%%%%%",
"%%%%%%%%%%%%%%%%%%%%%%. &%;%%%%%%%%%%;%%  %%%%%%%%%%%%%%%%%%%%%%",
"%%%%%%%%%%%%%%%%#;&%%%. &#%%%%%%%%%%#%%%  %%#;&%%%%%%%%%%%%%%%%%",
"%%%%%%%%%%%%%%%%#&&%%%. &%%%%%%%%%%%%%%% .%%#&&%%%%%%%%%%%%%%%%%",
"%%%%%%%%#%%%%%%%##%%%%. &%%%%%%%%%%%%%%%. %%###%%%%%%%%%%%%%%%%%",
"%%%%%%%#.#%%%%%%%%%%%%. &%%%%%%%%%%%%%%% .%%%##%%%%%%%%%%%%%%%%%",
"&&&&&&&$$$&&&&&&&&&&&&O.&%%%%%%%%%%%%%%%. &&&$$&&&&&&&&&&&&&&&&&",
"%%%%%%%###%%%%&%&%%%%%. &%%%%%%%%%%%%%%% .%%%#%%%%%%&%&%&%%%%%%%",
"&&&&&&&$$&&&&&&&&&&&&&O.;&&&&&&&&&&&&&&&. &&&&$&&&&&&&&&&&&&&&&&",
"&&&&&&&$$$&&&&&&&&&&&&. &%%%%%%%&%&%%&%% O&&&$&&&&&&&&&&&&&&&&&&",
"&&&&&&&$$&&&&&&&&&&&&&O.;&&&&&&&&&&&&&&&O.&&&&&&&&&&&&&&&&&&&&&&",
"&&&&&&&$$&&&&&&&&&&&&&O.;&&&&&&&&&&&&&&&.O&&&&&&&&&&&&&&&&&&&&&&",
"&&&&&&&&$&&&&&&&&&&&&&O.;&&&&&&&&&&&&&&&O.&&&&&&&&&&&&&&&&&&&&&&",
"&&&&&&&$$&&&&&&&&&&&&&O.;&&&&&&&&&&&&&&&.O&&&&&&&&&&&&&&&&&&&&&&",
"&&&&&&&&$&&&&&&&&&&&&&O.;&&&&&&&&&&&&&&&O.&&&&&&&&&&&&&&&&&&&&&&",
"&&&&&&&&$&&&&&&&&&&&&&..;&&&&&&&&&&&&&&&.O&&&&&&&&&&&&&&&&&&&&&&",
"&&&&&&&&&&&&&&&&&&&&&&O.;&&&&$$&&&&&&&&&OO&&&&&&&&&&&&&&&&&&&&&&",
"&&&&&&&&$&&&&&&&&&&&&&..-&&&&$$&&&&&&&&&.O&&&&&&&&&&&&&&&&&&&&&&",
"&&&&&&&&&&&&&&&&&&&&&&O.;&&&&$&&&&&&&&&&OO&&&&&&&&&&%&%&&&&&&&&&",
"&&&&&&&&&&&&&&&&&&&&&&..-&&&&&$&&&&&&&&&.O&&&&&&&&&%&%&&&&&&&&&&",
"&&&&&&&&&&&&&&&&&&&&&&O.;&&&&$&&&&&&&&&&OO&&&&&&%%%&%&&&&&&&&&&&",
"&&&&&&&&&&&&&&&&&&&&&&..-&&&&&&&&&&&&&&%.O&&&%%##-&&&&&&&&&&&&&&",
"&&&&&&&&&&&&&&&&&&&&&&..-&&&&&&&&&&&&&&.O%%%##;-&&&&&&&&&&&&&&&&",
"&&&&&&&&&&&&&&&&&&&&&&..-&&&&&&&&&&&&&&.O-;;-&&&&&&&&&&&&&&&&&&&",
"&&&&&&&&&&&&&&&&&&&&&&..-&&&&&&&&&&&&&&.O&&&&&&&&&&&&&&&&&&&&&&&",
"&&&%&&&&&&&&&&&&&&&&&&..-&&&&&&&&&&&&&&%O%&&&&&&&&&&&&&&&&&&&&&&",
"&&&&%&&&&&&&&&&&&&&&&&..&&&&&&&&&&&&&&&&.O&&&&&&&&&&&&&&&&&&&&&&",
"&&&%%&&&&&&&&&&&&&&&&&..-&&&&&&&&&&&&&&&OO&&&&&&&&&&&&&&&&&&&&&&",
"&&%%%&&&&&&&&&&&&&&&&&..&&&&&&&&&&&&&&&&.O&&&&&&&&&&&&&&&&&&&&&&",
"&&%%&&&&&&&&&&&&&&&&&&.O-&&&&&&&&&&&&&&&OO&&&&&&&&&&&&&&&&&&&&&&",
"&&%%%&&&&&&&-%&&&&&&&&O.&&&&&&&&&&&&&&&&OO&&&&&&&&&&&&&&&&&&&&&&",
"&&&%&&&&&&&-%&&&#;%&&&.O&&&&&&&&&&&&&&&&OO&&#;%&&&&&&&&&&&&&&&&&",
"&&&&%&&&&-; %&&&#%%&&&O.&&&&&&&&&&&&&&&&OO&&#%%&&&&&&&&&&&&&&&&&",
"&&&&&&&-;   -&&&##&&&&.O&&&&&&&&&&&&&&&&OO&&##&&&&&&&&&&&&&&&&&&",
"&&&&-;;    X --&&&&&&&OO&&;&&&&&&&&&&;&&OO&&&&&&&&&&&&&&&&&&&&&&",
";;;;   X . X   ;;;;&;&OO&#&&&&&&&&&&#&&&OO&;&;;;;;;&;&;&;&;;;;;;",
"    X  X.. * X         O&&&&&&&&&&&&&&&&O                       ",
"    X. =.. *.X          &&;;;;;;;;;;&;&&                        ",
"o. .*o =.. :.= .o. .o.                     .o...o. .o...o. .o...",
"+. .*o >.. :.= ++. ++o.                  . ++o.++. ++o.++. ++o.+",
"+. .:o.>...:.> ++. ++oo+.. .o...o. .o...o. ++oo++. ++oo++. ++oo+",
"+. .:o.>X. :.>.++. ++oo++. ++oo++. ++oo++. ++oo++. ++oo++. ++oo+",
"+o..:oo=>X.: =o++o.++oo++o.++oo++o.++oo++o.++oo++o.++oo++o.++oo+",
"+. .:oo =>=:= o++. ++oo++. ++oo++. ++oo++. ++oo++. ++oo++. ++oo+",
"+o.+ :o+   : oo++o.++oo++o.++oo++o.++oo++o.++oo++o.++oo++o.++oo+",
"+o +.:o++o.:.oo++o ++oo++o ++oo++o ++oo++o ++oo++o ++oo++o ++oo+",
"+o.++ :+o.: ooo++o.++oo++o.++oo++o.++oo++o.++oo++o.++oo++o.++oo+",
"+o.++o ::: .+oo++o.++oo++o.++oo++o.++oo++o.++oo++o.++oo++o.++oo+",
"+..++oo.  .+ooo++..++oo++..+ooo++..++oo++..+ooo++..++oo++..+ooo+",
"+o.++oo++o.++oo++o.++oo++o.++oo++o.++oo++o.++oo++o.++oo++o.++oo+",
"o. +ooo+o. +ooo+o. +ooo+o. +ooo+o. +ooo+o. +ooo+o. +ooo+o. +ooo+",
"+..o+oo++..o+oo++..o+oo++..o+oo++..o+oo++..o+oo++..o+oo++..o+oo+",
"o. +oo.+o. +oo.+o. +oo.+o. +oo.+o. +oo.+o. +oo.+o. +oo.+o. +oo.+",
"o  oo. oo  oo. oo  oo. oo  oo. oo  oo. oo  oo. oo  oo. oo  oo. o",
";;;;;;;;;-;;;;-;-;-;-;------;-;-;-;;;;;;;;;;;;;;;;;;;;;;;-;;;;-;",
"&&&&&&&&%&&&&&&&&&&&&&&&&%&&&&&&%&&&&&&&%&&&&&&&%&%&&&&&%&&&&&&&",
"&%&&&&&%&&&&&&&&&&&&&&&%%&&&&&&&&&&&&&&$$$&&&&&&&%&&&&&%&&&&&&&&",
"%&&;%&&&&&&;%&&&&&&;%&&%&&$;%&&&&&&;%&$&$&&;%&&&%&&;%&&&&&&;%&&&",
"&&#%%&&&&&#%%&&&&&#%%&%&%&#%%&&%&&#%%&&$&&#%%&&%&&#%%&&&&&#%%&&%",
"%&##&&&&&&##&&&&&&##&&&%&&##$&&&&&##&&$&&&##&&%%&&##&&&&&&##&&%&",
"&&&&&&&&&&&&&&&&&&&&&&%&&&&$$&&&&&&&&$&&&&&&&&%&&&&&&&&&&&&&&%&%",
"#@@@@@@#@#@#######@#@#.#.#....#.########@#@##@#@#@@@@@@#@#@#####"
};
