/* XPM */
static char *result[] = {
/* columns rows colors chars-per-pixel */
"64 64 12 1 ",
"  c black",
". c gray6",
"X c #151515",
"o c #1E1918",
"O c gray12",
"+ c #231512",
"@ c #2A2024",
"# c #382E2B",
"$ c #2A2E31",
"% c #34393C",
"& c #3E484D",
"* c #495960",
/* pixels */
"                                                                ",
"%%%%%%%%%%%%%$%$%$%$$$. %%%%%%$%$%$%$$$$  $$%$%$%%%%%%%%%%%$%$%%",
"$$$$$$$$$$$$$$$$$$$$$$. %$$$$$$$$$$$$$$$  $$$$$$$$$$$$$$$$$$$$$$",
"$$$$$$$$$$$$$$$$$$$$$$. %$*$$$$$$$$$$*$$  $$$$$$$$$$$$$$$$$$$$$$",
"$$$$$$$$$$$$$$$$@*%$$$. %@$$$@@@@@@$@$$$  $$@*%$$$$$$$$$$$$$$$$$",
"$$$$$$$$$$$$$$$$@%%$$$. %$$$@@@@@@@@$$$$ .$$@%%$$$$$$$$$$$$$$$$$",
"$$$$$$$$@$$$$$$$@@$$$$. %$$@@@XXXX@@@$$$. $$@@@$$$$$$$$$$$$$$$$$",
"$$$$$$$@.@$$$$$$$$$$$$. %$$@@XX$$XX@@$$$ .$$$@@$$$$$$$$$$$$$$$$$",
"%%%%%%%###%%%%%%%%%%%%o.%$$@@X$XX$X@@$$$. %%%##%%%%%%%%%%%%%%%%%",
"$$$$$$$@@@$$$$%$%$$$$$. %$$@@X$XX$X@@$$$ .$$$@$$$$$$%$%$%$$$$$$$",
"%%%%%%%##%%%%%%%%%%%%%o.*%%$$@$XX$@$$%%%. %%%%#%%%%%%%%%%%%%%%%%",
"%%%%%%%###%%%%%%%%%%%%. %$$@@X$XX$X@@$$$ o%%%#%%%%%%%%%%%%%%%%%%",
"%%%%%%%##%%%%%%%%%%%%%o.*%%$$@$XX$@$$%%%o.%%%%%%%%%%%%%%%%%%%%%%",
"%%%%%%%##%%%%%%%%%%%%%o.*%%$$@$XX$@$$%%%.o%%%%%%%%%%%%%%%%%%%%%%",
"%%%%%%%%#%%%%%%%%%%%%%o.*%%$$@$XX$@$%%%%o.%%%%%%%%%%%%%%%%%%%%%%",
"%%%%%%%##%%%%%%%%%%%%%o.*%%$$@$X.$@$$%%%.o%%%%%%%%%%%%%%%%%%%%%%",
"%%%%%%%%#%%%%%%%%%%%%%o.*%%$$@$.X$$$%%%%o.%%%%%%%%%%%%%%%%%%%%%%",
"%%%%%%%%#%%%%%%%%%%%%%..*%%$$@$XX$@$$%%%.o%%%%%%%%%%%%%%%%%%%%%%",
"%%%%%%%%%%%%%%%%%%%%%%o.*%%$$@$XX$$$$%%%oo%%%%%%%%%%%%%%%%%%%%%%",
"%%%%%%%%#%%%%%%%%%%%%%..&%%%$@$XX$@$$%%%.o%%%%%%%%%%%%%%%%%%$&%%",
"%%%%%%%%%%%%%%%%%%%%%%o.*%%$$@$XX$@$$%%%oo%%%%%%%$%%%%%%%%%$*%%%",
"%%%%%%%%%%%%%%%%%%%%%%..&%%%$@$XX$@$$%%%.o%%%%%%$*%%%%%%%%%&%%%%",
"%%%%%%%%%%%%%%%%%%%%%%o.*%%$$$$XX$@$$%%%oo%%%%%%&%%%%%%%%$%%%%%%",
"%%%%%%%%%%%%%%%%%%%%%%..&%%$$@$XX$@$$%%%.o%%%%%&%%%%%%$%$%%%%%%%",
"%%%%%%%%%%%%%%%%%%%%%%..&%%$$$$XX$@$$%%%.o%%%%%%%%%%%$&$%$&%%%%%",
"%%%%%%%%%%%%%%%%%%%%%%..&%%$$@$XX$@$$%%%.o%%%%%%%%%%$*$%$*%%%%%%",
"%%%%%%%%%%%%%%%%%%%%%%..&%%$$@$X.$@$$%%%.o%%%%%%%%%$*%%$&%%%%%%%",
"%%%$%%%%%%%%%%%%%%%%%%..&%%$$@$.X$@$$%%%oo%%%%%%%%%&%%$%%%%%%%%%",
"%%%%$%%%%%%%%%%%%%%%%%..%%%$$@$X.$@$$%%%.o%%%%%%%%%%%%%%%%%%%%%%",
"%%%$$%%%%%%%%%%%%%%%%%..&%%$$@$.X$@$$%%%oo%%%%%%%%%%%%%%%%%%%%%%",
"%%$$$%%%%%%%%%%%%%%%%%..%%%%$@$XX$@$$%%%.o%%%%%%%%%%%%%%%%%%%%%%",
"%%$$%%%%%%%%%%%%%%%%%%.o&%%$$@$XX$@$$%%%oo%%%%%%%%%%%%%%%%%%%%%%",
"%%$$$%%%%%%%%%%%%%%%%%o.%%%$$@@$$@@$$%%%oo%%%%%%%%%%%%%%%%%%%%%%",
"%%%$%%%%%%%%%%%%@*$%%%.o%%%$$$@@@@$$$%%%oo%%@*$%%%%%%%%%%%%%%%%%",
"%%%%$%%%%%%%%%%%@$$%%%o.%%%&$$$$$$$$&%%%oo%%@$$%%%%%%%%%%%%%%%%%",
"%%%%%%%%%%%%%%%%@@%%%%.o%%%%&$$$$$$&%%%%oo%%@@%%%%%%%%%%%%%%%%%%",
"%%%%%%%%%%%%%%%%%%%%%%oo%%*%%%&&&&%%%*%%oo%%%%%%%%%%%%%%%%%%%%%%",
"*******************%*%oo%@%%%%%%%%%%@%%%oo%*%******%*%*%*%******",
"                       o%%%%%%%%%%%%%%%%o                       ",
"                        %%**********%*%%                        ",
"X. .X...X. .X...X. .X.                     .X...X. .X...X. .X...",
"O. OOX.OO. OOX.OO. OOX.                  . OOX.OO. OOX.OO. OOX.O",
"O. OOXXOO. OOXXOO. OOXXO.. .X...X. .X...X. OOXXOO. OOXXOO. OOXXO",
"O. OOXXOO. OOXXOO. OOXXOO. OOXXOO. OOXXOO. OOXXOO. OOXXOO. OOXXO",
"OX.OOXXOOX.OOXXOOX.OOXXOOX.OOXXOOX.OOXXOOX.OOXXOOX.OOXXOOX.OOXXO",
"O. OOXXOO. OOXXOO. OOXXOO. OOXXOO. OOXXOO. OOXXOO. OOXXOO. OOXXO",
"OX.OOXXOOX.OOXXOOX.OOXXOOX.OOXXOOX.OOXXOOX.OOXXOOX.OOXXOOX.OOXXO",
"OX OOXXOOX OOXXOOX OOXXOOX OOXXOOX OOXXOOX OOXXOOX OOXXOOX OOXXO",
"OX.OOXXOOX.OOXXOOX.OOXXOOX.OOXXOOX.OOXXOOX.OOXXOOX.OOXXOOX.OOXXO",
"OX.OOXXOOX.OOXXOOX.OOXXOOX.OOXXOOX.OOXXOOX.OOXXOOX.OOXXOOX.OOXXO",
"O..OOXXOO..OXXXOO..OOXXOO..OXXXOO..OOXXOO..OXXXOO..OOXXOO..OXXXO",
"OX.OOXXOOX.OOXXOOX.OOXXOOX.OOXXOOX.OOXXOOX.OOXXOOX.OOXXOOX.OOXXO",
"X. OXXXOX. OXXXOX. OXXXOX. OXXXOX. OXXXOX. OXXXOX. OXXXOX. OXXXO",
"O..XOXXOO..XOXXOO..XOXXOO..XOXXOO..XOXXOO..XOXXOO..XOXXOO..XOXXO",
"X. OXX.OX. OXX.OX. OXX.OX. OXX.OX. OXX.OX. OXX.OX. OXX.OX. OXX.O",
"X  XX. XX  XX. XX  XX. XX  XX. XX  XX. XX  XX. XX  XX. XX  XX. X",
"*********&****&*&*&*&*&&&&&&*&*&*&***********************&****&*",
"%%%%%%%%$%%%%%%%%%%%%%%%%$%%%%%%$%%%%%%%$%%%%%%%$%$%%%%%$%%%%%%%",
"%$%%%%%$%%%%%%%%%%%%%%%$$%%%%%%%%%%%%%%###%%%%%%%$%%%%%$%%%%%%%%",
"$%%*$%%%%%%*$%%%%%%*$%%$%%#*$%%%%%%*$%#%#%%*$%%%$%%*$%%%%%%*$%%%",
"%%@$$%%%%%@$$%%%%%@$$%$%$%@$$%%$%%@$$%%#%%@$$%%$%%@$$%%%%%@$$%%$",
"$%@@%%%%%%@@%%%%%%@@%%%$%%@@#%%%%%@@%%#%%%@@%%$$%%@@%%%%%%@@%%$%",
"%%%%%%%%%%%%%%%%%%%%%%$%%%%##%%%%%%%%#%%%%%%%%$%%%%%%%%%%%%%%$%$",
"@++++++@+@+@@@@@@@+@+@.@.@....@.@@@@@@@@+@+@@+@+@++++++@+@+@@@@@"
};
