/* XPM */
static char *result[] = {
/* columns rows colors chars-per-pixel */
"64 64 84 1 ",
"  c black",
". c gray6",
"X c #151515",
"o c gray12",
"O c #231512",
"+ c #2A2024",
"@ c #382E2B",
"# c #2A2E31",
"$ c #34393C",
"% c #3E484D",
"& c #495960",
"* c #989898",
"= c gray60",
"- c #9B9B9B",
"; c gray61",
": c gray62",
"> c #9F9F9F",
", c #A0A0A0",
"< c gray63",
"1 c gray64",
"2 c #A4A4A4",
"3 c #A5A5A5",
"4 c gray65",
"5 c gray66",
"6 c #A9A9A9",
"7 c #AAAAAA",
"8 c #ACACAC",
"9 c gray68",
"0 c #AEAEAE",
"q c #AFAFAF",
"w c #B1B1B1",
"e c #B2B2B2",
"r c gray70",
"t c gray71",
"y c #B7B7B7",
"u c gray72",
"i c gray73",
"p c #BCBCBC",
"a c gray74",
"s c gray75",
"d c #C1C1C1",
"f c #C3C3C3",
"g c #C5C5C5",
"h c #C6C6C6",
"j c #C8C8C8",
"k c gray79",
"l c #CBCBCB",
"z c #CDCDCD",
"x c #CECECE",
"c c #D0D0D0",
"v c gray82",
"b c #D2D2D2",
"n c gray83",
"m c #D5D5D5",
"M c #D7D7D7",
"N c #D8D8D8",
"B c #DADADA",
"V c gray86",
"C c gainsboro",
"Z c gray87",
"A c #DFDFDF",
"S c #E1E1E1",
"D c #E2E2E2",
"F c #E4E4E4",
"G c #E6E6E6",
"H c #E7E7E7",
"J c gray91",
"K c #EAEAEA",
"L c gray92",
"P c #ECECEC",
"I c #EEEEEE",
"U c #EFEFEF",
"Y c gray94",
"T c gray95",
"R c #F3F3F3",
"E c #F4F4F4",
"W c gray96",
"Q c gray97",
"! c #F8F8F8",
"~ c #F9F9F9",
"^ c #FBFBFB",
"/ c gray99",
"( c #FDFDFD",
") c white",
/* pixels */
"                                                                ",
"$$$$$$$$$$$$$#$#$$$$$$$$$$#$#$#$$$$$$$$$$$$$$$$$$$$$$$$$$$$#$#$$",
"################################################################",
"################################################################",
"################################################################",
"################################################################",
"########+#######################################################",
"#######+.+######################################*###############",
"$$$$$$$@@@$$$$$$$$$$$$$$$$$$$$$$$$$$$$$$$$$$$$$***$$$$$$$$$$$$$$",
"#######+++######################################*==#############",
"$$$$$$$@@$$$$$$$G$$$$$$$$$$$$$$$$$$$$$$$$$$$$$$--=-$$$$$$$$$$$$$",
"$$$$$$$@@@$$$@$GGFD$$$$$$$$$$$$$$$$$$$$$$$$$$$$;--$$$$$$$$$$$$$$",
"$$$$$$$@@$$$@+HHFDDSA$$$$$$$$$$$$$$$$$$$$$$$$$$:;:$$$$$$$$$$$$$$",
"$$$$$$$@@$$$@@JHHFSAAZC$$$$$$$$$$$$$$$$$$$$$$$$>:>$$$$$$$$$$$$$$",
"$$$$$$$$@$$$$@KJK$$SZCCVB$$$$$$$$$$$$$$$$$$$$$$,>,$$$$$$$$$$$$$$",
"$$$$$$$@@$$$$@LKL$$$$ZVBBN$$$$$$$$$$$$$$$$$$$$$<,<$$$$$$$$$$$$$$",
"$$$$$$$$@$$$$$PLP$$$$$$VNNMm$$$$$$$$$$$$$$$$$$$1<1$$$$$$$$$$$$$$",
"$$$$$$$$@$$$$@IPI$$$$$$$$Mmmnbv$$$$$$$$$$$$$$$$212$$$$$$$$$$$$$$",
"$$$$$$$$$$$$$$UIU$$$$$$$$$Mnbvvc$$$$$$$$$$$$$$$323$$$$$$$$$$$$$$",
"$$$$$$$$@$$$$$YUY$$$$$$$$$$$nbccxz$$$$$$$$$$$$$434$$$$$$$$$$#%$$",
"$$$$$$$$$$$$$$TYT$$$$$$$$$$$$$$xzzl$$$$$$$$$$$$545$$$$$$$$$#&$$$",
"$$$$$$$$$$$$$$RTR$$$$$$$$$$$$$$$xllkj$$$$$$$$$$656$$$$$$$$$%$$$$",
"$$$$$$$$$$$$$$ERE$$$$$$$$$$$$$$$$$kjjh$$$$$$$$$767$$$$$$$#$$$$$$",
"$$$$$$$$$$$$$$WEW$$$$$$$$$$$$$$$$$$khhgf$$$$$$887$$$$$#$#$$$$$$$",
"$$$$$$$$$$$$$$QWQ$$$$$$$$$$$$$$$$$$$$gfff$$$$$989$$$$#%#$#%$$$$$",
"$$$$$$$$$$$$$$!Q!$$$$$$$$$$$$$$$$$$$$$ffd$$$$$090$$$#&#$#&$$$$$$",
"$$$$$$$$$$$$$$~!~$$$$$$$$$$$$$$$$$$$$$$dds$$$$q0q$$#&$$#%$$$$$$$",
"$$$#$$$$$$$$$$^~^$$$$$$$$$$$$$$$$$$$$$$$ssa$$$wqw$$%$$#$$$$$$$$$",
"$$$$#$$$$$$$$$/^/$$$$$$$$$$$$$$$$$$$$$$$$aap$$ewe$$$$$$$$$$$$$$$",
"$$$##$$$$$$$$$(/($$$$$$$$$$$$$$$$$$$$$$$$$ppiurer$$$$$$$$$$$$$$$",
"$$###$$$$$$$$$)()$$$$$$$$$$$$$$$$$$$$$$$$$$iuutrt$$$$$$$$$$$$$$$",
"$$##$$$$$$$$$$$)$$$$$$$$$$$$$$$$$$$$$$$$$$$$iyttt$$$$$$$$$$$$$$$",
"$$###$$$$$$$$$$$$$$$$$$$$$$$$$$$$$$$$$$$$$$$$$yt$$$$$$$$$$$$$$$$",
"$$$#$$$$$$$$$$$$$$$$$$$$$$$$$$$$$$$$$$$$$$$$$$$$$$$$$$$$$$$$$$$$",
"$$$$#$$$$$$$$$$$$$$$$$$$$$$$$$$$$$$$$$$$$$$$$$$$$$$$$$$$$$$$$$$$",
"$$$$$$$$$$$$$$$$$$$$$$$$$$$$$$$$$$$$$$$$$$$$$$$$$$$$$$$$$$$$$$$$",
"$$$$$$$$$$$$$$$$$$$$$$$$$$$$$$$$$$$$$$$$$$$$$$$$$$$$$$$$$$$$$$$$",
"&&&&&&&&&&&&&&&&&&&&&&&&&&&&$&$&&&&$&&&&&&&$&$&$&&&$&$&$&$&&&&&&",
"                                                                ",
"                                                                ",
"X. .X...X. .X...X. .X...X. .X...X. .X...X. .X...X. .X...X. .X...",
"o. ooX.oo. ooX.oo. ooX.oo. ooX.oo. ooX.oo. ooX.oo. ooX.oo. ooX.o",
"o. ooXXoo. ooXXoo. ooXXoo. ooXXoo. ooXXoo. ooXXoo. ooXXoo. ooXXo",
"o. ooXXoo. ooXXoo. ooXXoo. ooXXoo. ooXXoo. ooXXoo. ooXXoo. ooXXo",
"oX.ooXXooX.ooXXooX.ooXXooX.ooXXooX.ooXXooX.ooXXooX.ooXXooX.ooXXo",
"o. ooXXoo. ooXXoo. ooXXoo. ooXXoo. ooXXoo. ooXXoo. ooXXoo. ooXXo",
"oX.ooXXooX.ooXXooX.ooXXooX.ooXXooX.ooXXooX.ooXXooX.ooXXooX.ooXXo",
"oX ooXXooX ooXXooX ooXXooX ooXXooX ooXXooX ooXXooX ooXXooX ooXXo",
"oX.ooXXooX.ooXXooX.ooXXooX.ooXXooX.ooXXooX.ooXXooX.ooXXooX.ooXXo",
"oX.ooXXooX.ooXXooX.ooXXooX.ooXXooX.ooXXooX.ooXXooX.ooXXooX.ooXXo",
"o..ooXXoo..oXXXoo..ooXXoo..oXXXoo..ooXXoo..oXXXoo..ooXXoo..oXXXo",
"oX.ooXXooX.ooXXooX.ooXXooX.ooXXooX.ooXXooX.ooXXooX.ooXXooX.ooXXo",
"X. oXXXoX. oXXXoX. oXXXoX. oXXXoX. oXXXoX. oXXXoX. oXXXoX. oXXXo",
"o..XoXXoo..XoXXoo..XoXXoo..XoXXoo..XoXXoo..XoXXoo..XoXXoo..XoXXo",
"X. oXX.oX. oXX.oX. oXX.oX. oXX.oX. oXX.oX. oXX.oX. oXX.oX. oXX.o",
"X  XX. XX  XX. XX  XX. XX  XX. XX  XX. XX  XX. XX  XX. XX  XX. X",
"&&&&&&&&&%&&&&%&%&%&%&%%%%%%&%&%&%&&&&&&&&&&&&&&&&&&&&&&&%&&&&%&",
"$$$$$$$$#$$$$$$$$$$$$$$$$#$$$$$$$$$$$$$#$#$$$$$$#$#$$$$$#$$$$$$$",
"$#$$$$$#$$$$$$$$$$$$$$$##$$$$$$$$$$$$$$$#$$$$$$$$#$$$$$#$$$$$$$$",
"#$$&#$$$$$$&#$$$$$$&#$$#$$$&#$$$$$$&#$$#$$$&#$$$#$$&#$$$$$$&#$$$",
"$$+##$$$$$+##$$$$$+##$#$#$+##$$$$$+##$$$$$+##$$#$$+##$$$$$+##$$#",
"#$++$$$$$$++$$$$$$++$$$#$$++$$$$$$++$$$$$$++$$##$$++$$$$$$++$$#$",
"$$$$$$$$$$$$$$$$$$$$$$#$$$$$$$$$$$$$#$$$$$$$$$#$$$$$$$$$$$$$$#$#",
"+OOOOOO+O+O+++++++O+O+.+.+....+.++++++++O+O++O+O+OOOOOO+O+O+++++"
};
