/* XPM */
static char *result[] = {
/* columns rows colors chars-per-pixel */
"64 64 82 1 ",
"  c black",
". c gray6",
"X c #151515",
"o c gray12",
"O c #231512",
"+ c #2A2024",
"@ c #382E2B",
"# c #2A2E31",
"$ c #34393C",
"% c #3E484D",
"& c #495960",
"* c gray63",
"= c #A2A2A2",
"- c gray64",
"; c #A5A5A5",
": c #A7A7A7",
"> c gray66",
", c #AAAAAA",
"< c gray67",
"1 c #ACACAC",
"2 c #AEAEAE",
"3 c #AFAFAF",
"4 c gray69",
"5 c #B2B2B2",
"6 c #B4B4B4",
"7 c gray71",
"8 c #B6B6B6",
"9 c #B7B7B7",
"0 c gray72",
"q c gray73",
"w c #BBBBBB",
"e c #BCBCBC",
"r c gray74",
"t c gray75",
"y c #C0C0C0",
"u c #C1C1C1",
"i c #C3C3C3",
"p c gray77",
"a c #C5C5C5",
"s c gray78",
"d c #C8C8C8",
"f c gray79",
"g c #CBCBCB",
"h c gray80",
"j c #CDCDCD",
"k c #CECECE",
"l c #D0D0D0",
"z c gray82",
"x c #D2D2D2",
"c c gray83",
"v c #D5D5D5",
"b c #D7D7D7",
"n c #D8D8D8",
"m c gray85",
"M c gray86",
"N c gainsboro",
"B c #DDDDDD",
"V c #DFDFDF",
"C c gray88",
"Z c #E2E2E2",
"A c #E4E4E4",
"S c #E6E6E6",
"D c #E7E7E7",
"F c gray91",
"G c #EAEAEA",
"H c gray92",
"J c #ECECEC",
"K c gray93",
"L c #EFEFEF",
"P c gray94",
"I c #F1F1F1",
"U c #F3F3F3",
"Y c #F4F4F4",
"T c gray96",
"R c gray97",
"E c #F8F8F8",
"W c #F9F9F9",
"Q c #FBFBFB",
"! c gray99",
"~ c #FDFDFD",
"^ c #FEFEFE",
"/ c white",
/* pixels */
"                                                                ",
"$$$$$$$$$$$$$#$#$$$$$$$$$$#$#$#$$$$$$$$$$$$$$$$$$$$$$$$$$$$#$#$$",
"################################################################",
"################################################################",
"################################################################",
"################################################################",
"########+####################<,>:###############################",
"#######+.+################32<,>::;##############################",
"$$$$$$$@@@$$$$$$$$$$$$$$53211<,>;;-$$$$$$$$$$$$$$$$$$$$$$$$$$$$$",
"#######+++#############544321####-=-############################",
"$$$$$$$@@$$$$$$$$$$$$$6654$$$$$$$=*=$$$$$$$$$$$$$$$$$$$$$$$$$$$$",
"$$$$$$$@@@$$$@$$$$$$$776$$$$$$$$$***$$$$$$$$$$$$$$$$$$$$$$$$$$$$",
"$$$$$$$@@$$$@+@$$$$$9878$$$$$$$$$$*$$$$$$$$$$$$$$$$$$$$$$$$$$$$$",
"$$$$$$$@@$$$@@@$$$$$098$$$$$$$$$$$$$$$$$$$$$$$$$$$$$$$$$$$$$$$$$",
"$$$$$$$$@$$$$@@$$$$$q0q$$$$$$$$$$$$$$$$$$$$$$$$$$$$$$$$$$$$$$$$$",
"$$$$$$$@@$$$$@$$$$$$$qww$$$$$$$$$$$$$$$$$$$$$$$$$$$$$$$$$$$$$$$$",
"$$$$$$$$@$$$$$@$$$$$$ewe$$$$$$$$$$$$$$$$$$$$$$$$$$$$$$$$$$$$$$$$",
"$$$$$$$$@$$$$@$$$$$$$rer$$$$$$$$$$$$$$$$$$$$$$$$$$$$$$$$$$$$$$$$",
"$$$$$$$$$$$$$$$$$$$$$trt$$$$$$$$$$$$$$$$$$$$$$$$$$$$$$$$$$$$$$$$",
"$$$$$$$$@$$$$$$$$$$$$ytyup$$$$$$$$$$$$$$$$$$$$$$$$$$$$$$$$$$#%$$",
"$$$$$$$$$$$$$$$$$$$$$$yuiipsd$$$$$$$$$$$$$$$$$$$$$$$$$$$$$$#&$$$",
"$$$$$$$$$$$$$$$$$$$$$$$$ipaasdghjklzxc$$$$$$$$$$$$$$$$$$$$$%$$$$",
"$$$$$$$$$$$$$$$$$$$$$$$$$$asdffghjklzxcb$$$$$$$$$$$$$$$$$#$$$$$$",
"$$$$$$$$$$$$$$$$$$$$$$$$$$$$$fghjklzxcvvb$$$$$$$$$$$$$#$#$$$$$$$",
"$$$$$$$$$$$$$$$$$$$$$$$$$$$$$$$$$$$$$$vbbn$$$$$$$$$$$#%#$#%$$$$$",
"$$$$$$$$$$$$$$$$$$$$$$$$$$$$$$$$$$$$$$$bnmm$$$$$$$$$#&#$#&$$$$$$",
"$$$$$$$$$$$$$$$$$$$$$$$$$$$$$$$$$$$$$$$$mmM$$$$$$$$#&$$#%$$$$$$$",
"$$$#$$$$$$$$$$$$$$$$$$$$$$$$$$$$$$$$$$$$NMN$$$$$$$$%$$#$$$$$$$$$",
"$$$$#$$$$$$$$$$$$$$/$$$$$$$$$$$$$$$$$$$$BNB$$$$$$$$$$$$$$$$$$$$$",
"$$$##$$$$$$$$$$$$$/^~$$$$$$$$$$$$$$$$$$VVBV$$$$$$$$$$$$$$$$$$$$$",
"$$###$$$$$$$$$$$$$^~!Q$$$$$$$$$$$$$$$$$CVV$$$$$$$$$$$$$$$$$$$$$$",
"$$##$$$$$$$$$$$$$$$!QQWE$$$$$$$$$$$$$$ZZC$$$$$$$$$$$$$$$$$$$$$$$",
"$$###$$$$$$$$$$$$$$$!WEERTY$$$$$$$$$DAAZ$$$$$$$$$$$$$$$$$$$$$$$$",
"$$$#$$$$$$$$$$$$$$$$$$WRTYYUIPLKJHGDSSA$$$$$$$$$$$$$$$$$$$$$$$$$",
"$$$$#$$$$$$$$$$$$$$$$$$$RTUIPLKJHGFFDS$$$$$$$$$$$$$$$$$$$$$$$$$$",
"$$$$$$$$$$$$$$$$$$$$$$$$$$$UIPLKJHGF$$$$$$$$$$$$$$$$$$$$$$$$$$$$",
"$$$$$$$$$$$$$$$$$$$$$$$$$$$$$$$$$$$$$$$$$$$$$$$$$$$$$$$$$$$$$$$$",
"&&&&&&&&&&&&&&&&&&&&&&&&&&&&$&$&&&&$&&&&&&&$&$&$&&&$&$&$&$&&&&&&",
"                                                                ",
"                                                                ",
"X. .X...X. .X...X. .X...X. .X...X. .X...X. .X...X. .X...X. .X...",
"o. ooX.oo. ooX.oo. ooX.oo. ooX.oo. ooX.oo. ooX.oo. ooX.oo. ooX.o",
"o. ooXXoo. ooXXoo. ooXXoo. ooXXoo. ooXXoo. ooXXoo. ooXXoo. ooXXo",
"o. ooXXoo. ooXXoo. ooXXoo. ooXXoo. ooXXoo. ooXXoo. ooXXoo. ooXXo",
"oX.ooXXooX.ooXXooX.ooXXooX.ooXXooX.ooXXooX.ooXXooX.ooXXooX.ooXXo",
"o. ooXXoo. ooXXoo. ooXXoo. ooXXoo. ooXXoo. ooXXoo. ooXXoo. ooXXo",
"oX.ooXXooX.ooXXooX.ooXXooX.ooXXooX.ooXXooX.ooXXooX.ooXXooX.ooXXo",
"oX ooXXooX ooXXooX ooXXooX ooXXooX ooXXooX ooXXooX ooXXooX ooXXo",
"oX.ooXXooX.ooXXooX.ooXXooX.ooXXooX.ooXXooX.ooXXooX.ooXXooX.ooXXo",
"oX.ooXXooX.ooXXooX.ooXXooX.ooXXooX.ooXXooX.ooXXooX.ooXXooX.ooXXo",
"o..ooXXoo..oXXXoo..ooXXoo..oXXXoo..ooXXoo..oXXXoo..ooXXoo..oXXXo",
"oX.ooXXooX.ooXXooX.ooXXooX.ooXXooX.ooXXooX.ooXXooX.ooXXooX.ooXXo",
"X. oXXXoX. oXXXoX. oXXXoX. oXXXoX. oXXXoX. oXXXoX. oXXXoX. oXXXo",
"o..XoXXoo..XoXXoo..XoXXoo..XoXXoo..XoXXoo..XoXXoo..XoXXoo..XoXXo",
"X. oXX.oX. oXX.oX. oXX.oX. oXX.oX. oXX.oX. oXX.oX. oXX.oX. oXX.o",
"X  XX. XX  XX. XX  XX. XX  XX. XX  XX. XX  XX. XX  XX. XX  XX. X",
"&&&&&&&&&%&&&&%&%&%&%&%%%%%%&%&%&%&&&&&&&&&&&&&&&&&&&&&&&%&&&&%&",
"$$$$$$$$#$$$$$$$$$$$$$$$$#$$$$$$$$$$$$$#$#$$$$$$#$#$$$$$#$$$$$$$",
"$#$$$$$#$$$$$$$$$$$$$$$##$$$$$$$$$$$$$$$#$$$$$$$$#$$$$$#$$$$$$$$",
"#$$&#$$$$$$&#$$$$$$&#$$#$$$&#$$$$$$&#$$#$$$&#$$$#$$&#$$$$$$&#$$$",
"$$+##$$$$$+##$$$$$+##$#$#$+##$$$$$+##$$$$$+##$$#$$+##$$$$$+##$$#",
"#$++$$$$$$++$$$$$$++$$$#$$++$$$$$$++$$$$$$++$$##$$++$$$$$$++$$#$",
"$$$$$$$$$$$$$$$$$$$$$$#$$$$$$$$$$$$$#$$$$$$$$$#$$$$$$$$$$$$$$#$#",
"+OOOOOO+O+O+++++++O+O+.+.+....+.++++++++O+O++O+O+OOOOOO+O+O+++++"
};
