/* XPM */
static char *result[] = {
/* columns rows colors chars-per-pixel */
"64 64 66 1 ",
"  c black",
". c gray6",
"X c #151515",
"o c gray12",
"O c #231512",
"+ c #2A2024",
"@ c #382E2B",
"# c #2A2E31",
"$ c #34393C",
"% c #3E484D",
"& c #495960",
"* c #C1C1C1",
"= c #C3C3C3",
"- c gray77",
"; c gray78",
": c #C8C8C8",
"> c #CACACA",
", c #CBCBCB",
"< c gray80",
"1 c #CDCDCD",
"2 c #CECECE",
"3 c gray81",
"4 c #D0D0D0",
"5 c #D2D2D2",
"6 c LightGray",
"7 c gray83",
"8 c #D5D5D5",
"9 c gray84",
"0 c #D7D7D7",
"q c #D8D8D8",
"w c gray85",
"e c #DADADA",
"r c gray86",
"t c #DDDDDD",
"y c gray87",
"u c #DFDFDF",
"i c gray88",
"p c #E1E1E1",
"a c #E2E2E2",
"s c gray89",
"d c #E4E4E4",
"f c gray90",
"g c #E6E6E6",
"h c #E7E7E7",
"j c #E9E9E9",
"k c #EAEAEA",
"l c gray92",
"z c #ECECEC",
"x c gray93",
"c c #EEEEEE",
"v c #EFEFEF",
"b c gray94",
"n c #F1F1F1",
"m c gray95",
"M c #F3F3F3",
"N c #F4F4F4",
"B c gray96",
"V c #F6F6F6",
"C c gray97",
"Z c #F8F8F8",
"A c #F9F9F9",
"S c gray98",
"D c #FBFBFB",
"F c gray99",
"G c #FDFDFD",
"H c white",
/* pixels */
"                                                                ",
"$$$$$$$$$$$$$#$#$$$$$$$$$$#$#$#$$$$$$$$$$$$$$$$$$$$$$$$$$$$#$#$$",
"################################################################",
"################################################################",
"################################################################",
"################################################################",
"########+#######################################################",
"#######+.+###########################################*##########",
"$$$$$$$@@@$$$$$$$$$$$$$$$$$$$$$$$$$$$$$$$$$$$$$$$$$$***$$$$$$$$$",
"#######+++#########################################==*##########",
"$$$$$$$@@$$H$$$$$$$$$$$$$$$$$$$$$$$$$$$$$$$$$$$$$$--=$$$$$$$$$$$",
"$$$$$$$@@@HHG@$$$$$$$$$$$$$$$$$$$$$$$$$$$$$$$$$$$;;-$$$$$$$$$$$$",
"$$$$$$$@@$$GFG@$$$$$$$$$$$$$$$$$$$$$$$$$$$$$$$$$::;$$$$$$$$$$$$$",
"$$$$$$$@@$$FFS@$$$$$$$$$$$$$$$$$$$$$$$$$$$$$$$$>>:$$$$$$$$$$$$$$",
"$$$$$$$$@$$$SSA$$$$$$$$$$$$$$$$$$$$$$$$$$$$$$$<,>,$$$$$$$$$$$$$$",
"$$$$$$$@@$$$$AAC$$$$$$$$$$$$$$$$$$$$$$$$$$$$$$1<,$$$$$$$$$$$$$$$",
"$$$$$$$$@$$$$$CBC$$$$$$$$$$$$$$$$$$$$$$$$$$$$331$$$$$$$$$$$$$$$$",
"$$$$$$$$@$$$$@BBN$$$$$$$$$$$$$$$$$$$$$$$$$$$443$$$$$$$$$$$$$$$$$",
"$$$$$$$$$$$$$$$NNm$$$$$$$$$$$$$$$$$$$$$$$$$$545$$$$$$$$$$$$$$$$$",
"$$$$$$$$@$$$$$$$mnm$$$$$$$$$$$$$$$$$$$$$$$$665$$$$$$$$$$$$$$#%$$",
"$$$$$$$$$$$$$$$$nbn$$$$$$$$$$$$$$$$$$$$$$$$868$$$$$$$$$$$$$#&$$$",
"$$$$$$$$$$$$$$$$bcb$$$$$$$$$$$$$$$$$$$$$$$998$$$$$$$$$$$$$$%$$$$",
"$$$$$$$$$$$$$$$$ccx$$$$$$$$$$$$$$$$$$$$$$$090$$$$$$$$$$$$#$$$$$$",
"$$$$$$$$$$$$$$$$$xzx$$$$$$HH$$$$$$$$$$$$$ww0$$$$$$$$$$#$#$$$$$$$",
"$$$$$$$$$$$$$$$$$zkz$$$$$HHHFD$432$$$$$$$ewe$$$$$$$$$#%#$#%$$$$$",
"$$$$$$$$$$$$$$$$$kkj$$$$$$HFDDS3222$$$$$$rer$$$$$$$$#&#$#&$$$$$$",
"$$$$$$$$$$$$$$$$$$jhj$$$$$$$FSSZV2$$$$$$$trt$$$$$$$#&$$#%$$$$$$$",
"$$$#$$$$$$$$$$$$$$hhg$$$$$$$77ZVVB$$$$$$yyt$$$$$$$$%$$#$$$$$$$$$",
"$$$$#$$$$$$$$$$$$$$gdg$$$$$8878ZBNM$$$$$uyu$$$$$$$$$$$$$$$$$$$$$",
"$$$##$$$$$$$$$$$$$$dds$$$$e088$$NMmM$$$$pup$$$$$$$$$$$$$$$$$$$$$",
"$$###$$$$$$$$$$$$$$$ssa$teqq0$$$$mmb$$$$apa$$$$$$$$$$$$$$$$$$$$$",
"$$##$$$$$$$$$$$$$$$$$aitrreq$$$$$$bbv$$$sas$$$$$$$$$$$$$$$$$$$$$",
"$$###$$$$$$$$$$$$$$$$iyytr$$$$$$$$$vxz$ffs$$$$$$$$$$$$$$$$$$$$$$",
"$$$#$$$$$$$$$$$$$$$$$$iy$$$$$$$$$$$xzzlgfg$$$$$$$$$$$$$$$$$$$$$$",
"$$$$#$$$$$$$$$$$$$$$$$$$$$$$$$$$$$$$xljhgh$$$$$$$$$$$$$$$$$$$$$$",
"$$$$$$$$$$$$$$$$$$$$$$$$$$$$$$$$$$$$$$ljh$$$$$$$$$$$$$$$$$$$$$$$",
"$$$$$$$$$$$$$$$$$$$$$$$$$$$$$$$$$$$$$$$$$$$$$$$$$$$$$$$$$$$$$$$$",
"&&&&&&&&&&&&&&&&&&&&&&&&&&&&$&$&&&&$&&&&&&&$&$&$&&&$&$&$&$&&&&&&",
"                                                                ",
"                                                                ",
"X. .X...X. .X...X. .X...X. .X...X. .X...X. .X...X. .X...X. .X...",
"o. ooX.oo. ooX.oo. ooX.oo. ooX.oo. ooX.oo. ooX.oo. ooX.oo. ooX.o",
"o. ooXXoo. ooXXoo. ooXXoo. ooXXoo. ooXXoo. ooXXoo. ooXXoo. ooXXo",
"o. ooXXoo. ooXXoo. ooXXoo. ooXXoo. ooXXoo. ooXXoo. ooXXoo. ooXXo",
"oX.ooXXooX.ooXXooX.ooXXooX.ooXXooX.ooXXooX.ooXXooX.ooXXooX.ooXXo",
"o. ooXXoo. ooXXoo. ooXXoo. ooXXoo. ooXXoo. ooXXoo. ooXXoo. ooXXo",
"oX.ooXXooX.ooXXooX.ooXXooX.ooXXooX.ooXXooX.ooXXooX.ooXXooX.ooXXo",
"oX ooXXooX ooXXooX ooXXooX ooXXooX ooXXooX ooXXooX ooXXooX ooXXo",
"oX.ooXXooX.ooXXooX.ooXXooX.ooXXooX.ooXXooX.ooXXooX.ooXXooX.ooXXo",
"oX.ooXXooX.ooXXooX.ooXXooX.ooXXooX.ooXXooX.ooXXooX.ooXXooX.ooXXo",
"o..ooXXoo..oXXXoo..ooXXoo..oXXXoo..ooXXoo..oXXXoo..ooXXoo..oXXXo",
"oX.ooXXooX.ooXXooX.ooXXooX.ooXXooX.ooXXooX.ooXXooX.ooXXooX.ooXXo",
"X. oXXXoX. oXXXoX. oXXXoX. oXXXoX. oXXXoX. oXXXoX. oXXXoX. oXXXo",
"o..XoXXoo..XoXXoo..XoXXoo..XoXXoo..XoXXoo..XoXXoo..XoXXoo..XoXXo",
"X. oXX.oX. oXX.oX. oXX.oX. oXX.oX. oXX.oX. oXX.oX. oXX.oX. oXX.o",
"X  XX. XX  XX. XX  XX. XX  XX. XX  XX. XX  XX. XX  XX. XX  XX. X",
"&&&&&&&&&%&&&&%&%&%&%&%%%%%%&%&%&%&&&&&&&&&&&&&&&&&&&&&&&%&&&&%&",
"$$$$$$$$#$$$$$$$$$$$$$$$$#$$$$$$$$$$$$$#$#$$$$$$#$#$$$$$#$$$$$$$",
"$#$$$$$#$$$$$$$$$$$$$$$##$$$$$$$$$$$$$$$#$$$$$$$$#$$$$$#$$$$$$$$",
"#$$&#$$$$$$&#$$$$$$&#$$#$$$&#$$$$$$&#$$#$$$&#$$$#$$&#$$$$$$&#$$$",
"$$+##$$$$$+##$$$$$+##$#$#$+##$$$$$+##$$$$$+##$$#$$+##$$$$$+##$$#",
"#$++$$$$$$++$$$$$$++$$$#$$++$$$$$$++$$$$$$++$$##$$++$$$$$$++$$#$",
"$$$$$$$$$$$$$$$$$$$$$$#$$$$$$$$$$$$$#$$$$$$$$$#$$$$$$$$$$$$$$#$#",
"+OOOOOO+O+O+++++++O+O+.+.+....+.++++++++O+O++O+O+OOOOOO+O+O+++++"
};
